<?xml version="1.0" encoding="UTF-8"?>
<svg version="1.1" xmlns="http://www.w3.org/2000/svg" width="196" height="168">
<path d="M0 0 C64.68 0 129.36 0 196 0 C196 55.44 196 110.88 196 168 C131.32 168 66.64 168 0 168 C0 112.56 0 57.12 0 0 Z " fill="#FCFDFD" transform="translate(0,0)"/>
<path d="M0 0 C0.72509766 0.16113281 1.45019531 0.32226562 2.19726562 0.48828125 C13.55964912 3.12214912 13.55964912 3.12214912 17.5625 7.125 C17.37896766 9.76549752 17.09394041 12.26817532 16.6875 14.875 C15.4909345 21.98077582 15.4909345 21.98077582 15.5625 29.125 C17.2174514 30.92953646 17.2174514 30.92953646 19.5625 32.125 C22.88792497 34.11709293 26.03980177 36.14884714 29.125 38.5 C29.78628906 39.00273438 30.44757813 39.50546875 31.12890625 40.0234375 C31.60199219 40.38695312 32.07507813 40.75046875 32.5625 41.125 C33.64789063 40.53589844 34.73328125 39.94679687 35.8515625 39.33984375 C37.29642937 38.57988131 38.74176704 37.82081352 40.1875 37.0625 C40.90035156 36.67255859 41.61320313 36.28261719 42.34765625 35.88085938 C43.05019531 35.51669922 43.75273437 35.15253906 44.4765625 34.77734375 C45.4348999 34.26675415 45.4348999 34.26675415 46.41259766 33.74584961 C49.52085445 32.84824604 51.48319313 33.1675217 54.5625 34.125 C56.52880859 36.34643555 56.52880859 36.34643555 58.2109375 39.26171875 C58.82324219 40.31423828 59.43554688 41.36675781 60.06640625 42.45117188 C60.99259766 44.1150293 60.99259766 44.1150293 61.9375 45.8125 C62.57816406 46.90240234 63.21882812 47.99230469 63.87890625 49.11523438 C69.33009781 58.66353686 69.33009781 58.66353686 68.5625 64.125 C67.09375 65.81591797 67.09375 65.81591797 65.0625 67.1171875 C64.340625 67.59414062 63.61875 68.07109375 62.875 68.5625 C62.111875 69.036875 61.34875 69.51125 60.5625 70 C59.799375 70.49757813 59.03625 70.99515625 58.25 71.5078125 C56.36542251 72.73278787 54.47048783 73.93694774 52.5625 75.125 C52.71589844 76.15753906 52.86929688 77.19007812 53.02734375 78.25390625 C53.47959125 81.52527319 53.84075783 84.77341199 54.125 88.0625 C54.20878906 89.02027344 54.29257813 89.97804688 54.37890625 90.96484375 C54.43949219 91.67769531 54.50007812 92.39054687 54.5625 93.125 C46.96751039 93.38942904 39.98890842 92.73381575 32.5625 91.125 C32.21638672 89.67480469 32.21638672 89.67480469 31.86328125 88.1953125 C27.95944567 72.36796031 21.41938096 58.82964464 7.2421875 49.62109375 C-7.25335865 41.52809933 -22.72284955 38.73165403 -39.08984375 41.8125 C-42.0061192 42.73221893 -44.68029566 43.80580268 -47.4375 45.125 C-48.37722656 45.56070313 -49.31695312 45.99640625 -50.28515625 46.4453125 C-64.29530754 53.49856611 -73.88174488 64.88527111 -78.9375 79.6875 C-83.63230539 95.35858653 -82.12665464 110.24497744 -74.75 124.875 C-70.62220202 131.97523265 -65.16539428 138.37589816 -58.4375 143.125 C-59.13812483 147.69236441 -60.75020207 151.6949505 -62.5 155.9375 C-62.78166016 156.63037109 -63.06332031 157.32324219 -63.35351562 158.03710938 C-64.04424973 159.73467624 -64.74033728 161.43006312 -65.4375 163.125 C-71.06127276 162.50236802 -73.87077859 159.41494527 -77.9375 155.7421875 C-80.28267049 153.89075204 -80.28267049 153.89075204 -82.875 154.19140625 C-86.96630286 155.68198763 -90.67909756 157.77637623 -94.5 159.84765625 C-97.55811518 161.17744836 -99.17334614 161.80682161 -102.4375 161.125 C-106.84358048 156.88941958 -109.70064584 150.88450291 -112.75 145.625 C-113.31267578 144.68785156 -113.87535156 143.75070313 -114.45507812 142.78515625 C-114.98166016 141.87636719 -115.50824219 140.96757812 -116.05078125 140.03125 C-116.53329346 139.20947266 -117.01580566 138.38769531 -117.51293945 137.54101562 C-118.65772588 134.54951669 -118.53886005 133.11682303 -117.4375 130.125 C-115.85522461 128.54760742 -115.85522461 128.54760742 -113.83984375 127.23046875 C-113.12119141 126.75029297 -112.40253906 126.27011719 -111.66210938 125.77539062 C-110.90736328 125.29263672 -110.15261719 124.80988281 -109.375 124.3125 C-108.23708008 123.55936523 -108.23708008 123.55936523 -107.07617188 122.79101562 C-105.20499226 121.55533098 -103.32581482 120.33427034 -101.4375 119.125 C-101.581875 118.47015625 -101.72625 117.8153125 -101.875 117.140625 C-103.31657838 110.05286466 -103.66433527 103.34592278 -103.4375 96.125 C-104.29988281 95.99867187 -105.16226563 95.87234375 -106.05078125 95.7421875 C-109.36452373 95.13829902 -112.42560171 94.29619108 -115.625 93.25 C-116.64980469 92.92257813 -117.67460938 92.59515625 -118.73046875 92.2578125 C-121.37720312 91.15023246 -122.80181585 90.46329762 -124.4375 88.125 C-125.26087261 81.92397504 -122.76468586 75.22582276 -121.0625 69.3125 C-120.74925781 68.21881104 -120.74925781 68.21881104 -120.4296875 67.10302734 C-119.22681167 63.11758433 -118.01720475 59.46115952 -115.4375 56.125 C-109.96804189 55.45331216 -105.07438999 56.46303796 -99.734375 57.6875 C-97.1723027 58.24974141 -97.1723027 58.24974141 -93.4375 58.125 C-91.5812444 56.12637452 -91.5812444 56.12637452 -90 53.5 C-87.96966404 50.38652585 -86.01039242 47.55539489 -83.4375 44.875 C-81.12675751 42.31331797 -81.12675751 42.31331797 -81.6171875 39.33203125 C-82.77641895 34.79998828 -84.9884903 31.09016252 -87.2578125 27.02734375 C-88.59056135 23.74842854 -88.72630581 22.3970113 -87.4375 19.125 C-85.8984375 17.640625 -85.8984375 17.640625 -83.8125 16.375 C-83.01070312 15.88257812 -82.20890625 15.39015625 -81.3828125 14.8828125 C-80.41085938 14.30273438 -79.43890625 13.72265625 -78.4375 13.125 C-77.18351868 12.33290518 -75.93100654 11.53848143 -74.6796875 10.7421875 C-73.34970824 9.91025827 -72.018977 9.07953002 -70.6875 8.25 C-69.73109619 7.64140137 -69.73109619 7.64140137 -68.75537109 7.02050781 C-62.44729929 3.17190679 -62.44729929 3.17190679 -58.4375 4.125 C-56.33984375 6.1015625 -56.33984375 6.1015625 -54.375 8.75 C-53.69308594 9.6575 -53.01117188 10.565 -52.30859375 11.5 C-50.28404711 14.34028255 -48.30002573 17.17600093 -46.4375 20.125 C-44.70804347 19.98264543 -42.97894346 19.83595618 -41.25 19.6875 C-40.28707031 19.60628906 -39.32414062 19.52507813 -38.33203125 19.44140625 C-35.46942593 19.17275847 -35.46942593 19.17275847 -32.8125 18.59375 C-29.66858996 17.97324144 -26.63254893 18.06235198 -23.4375 18.125 C-23.26734375 17.43535156 -23.0971875 16.74570312 -22.921875 16.03515625 C-21.32844383 9.8563726 -19.63706117 3.69508625 -16.4375 -1.875 C-11.92860243 -4.12944879 -4.82414523 -1.11752967 0 0 Z " fill="#024BAD" transform="translate(125.4375,3.875)"/>
<path d="M0 0 C64.68 0 129.36 0 196 0 C196 21.12 196 42.24 196 64 C195.34 64.66 194.68 65.32 194 66 C193.62230469 64.87335938 193.24460938 63.74671875 192.85546875 62.5859375 C190.9609455 57.53164795 188.20709575 53.15924419 185.3125 48.625 C184.30465711 47.03634474 183.30054638 45.44531358 182.30078125 43.8515625 C181.85903564 43.15885254 181.41729004 42.46614258 180.9621582 41.75244141 C180 40 180 40 180 38 C174.14453867 37.40135859 170.21163746 39.44805985 165.125 42 C164.34125 42.3815625 163.5575 42.763125 162.75 43.15625 C160.82819911 44.09371385 158.91336968 45.04544586 157 46 C156.443125 45.48050781 155.88625 44.96101563 155.3125 44.42578125 C150.4581328 39.98961123 145.68383725 36.30695986 140 33 C140.14469531 31.20824107 140.29083261 29.41659858 140.4375 27.625 C140.52515625 26.53703125 140.6128125 25.4490625 140.703125 24.328125 C141.04233251 20.52543027 141.50356689 16.74452607 142.01171875 12.9609375 C142.22828572 10.75970672 142.22828572 10.75970672 140 9 C138.07803754 8.29768448 138.07803754 8.29768448 135.859375 7.78125 C135.03566406 7.57113281 134.21195313 7.36101563 133.36328125 7.14453125 C132.50089844 6.93183594 131.63851562 6.71914062 130.75 6.5 C129.05682432 6.07477323 127.36410398 5.64772873 125.671875 5.21875 C124.86637207 5.01491699 124.06086914 4.81108398 123.23095703 4.60107422 C121.33361843 4.08988494 119.46313753 3.48064647 117.6015625 2.8515625 C114.62046712 1.87576852 112.11661538 1.85158974 109 2 C108.82984375 2.52207031 108.6596875 3.04414062 108.484375 3.58203125 C106.44759342 9.7682136 104.25037295 15.88858108 102 22 C99.10496617 22.50505263 96.20912047 23.0042022 93.3125 23.5 C92.49587891 23.64308594 91.67925781 23.78617188 90.83789062 23.93359375 C90.04189453 24.06894531 89.24589844 24.20429688 88.42578125 24.34375 C87.69786377 24.46943359 86.96994629 24.59511719 86.2199707 24.72460938 C83.71345505 25.03554632 81.52001086 25.27196385 79 25 C77.41015625 23.53125 77.41015625 23.53125 76.0625 21.5 C75.55976562 20.778125 75.05703125 20.05625 74.5390625 19.3125 C73.51302083 17.77083333 72.48697917 16.22916667 71.4609375 14.6875 C70.70683594 13.6046875 70.70683594 13.6046875 69.9375 12.5 C69.49277344 11.8296875 69.04804687 11.159375 68.58984375 10.46875 C67.06337555 8.78900653 67.06337555 8.78900653 64.64331055 8.60791016 C61.47591948 9.07773837 59.51013375 10.12212257 56.76953125 11.7734375 C55.80208984 12.3509375 54.83464844 12.9284375 53.83789062 13.5234375 C52.83951172 14.13445313 51.84113281 14.74546875 50.8125 15.375 C49.2975293 16.27992187 49.2975293 16.27992187 47.75195312 17.203125 C42.57670072 20.20898565 42.57670072 20.20898565 38 24 C38.38124461 29.82641223 41.0284166 34.09926198 43.8203125 39.09765625 C45.17586248 42.43266829 45.25717465 43.66180008 44 47 C42.29296875 49.46484375 42.29296875 49.46484375 40.1875 51.9375 C37.20667494 55.51770102 34.48582956 59.06410319 32 63 C30.41632253 62.85795259 28.83306682 62.71119847 27.25 62.5625 C26.36828125 62.48128906 25.4865625 62.40007813 24.578125 62.31640625 C22 62 22 62 19.9375 61.46875 C17.80721791 60.95335917 15.93775252 60.90103746 13.75 60.9375 C12.5125 60.958125 11.275 60.97875 10 61 C3.29199953 76.01687527 3.29199953 76.01687527 2 92 C5.6221725 95.07357161 10.33539311 96.26939246 14.8125 97.6875 C15.50537109 97.91244141 16.19824219 98.13738281 16.91210938 98.36914062 C18.60629082 98.91828909 20.30290633 99.45991862 22 100 C22.19916016 101.73636719 22.19916016 101.73636719 22.40234375 103.5078125 C22.58065082 105.04688408 22.75904062 106.58594607 22.9375 108.125 C23.02451172 108.88554688 23.11152344 109.64609375 23.20117188 110.4296875 C23.6915487 114.64329577 24.25902978 118.821195 25 123 C23.27278316 124.27348212 21.54313762 125.54367057 19.8125 126.8125 C18.36810547 127.87404297 18.36810547 127.87404297 16.89453125 128.95703125 C14 131 14 131 11.19921875 132.44921875 C8.8292459 133.80802627 8.8292459 133.80802627 8.17944336 136.24047852 C7.94086697 139.90936146 9.04392374 141.56900951 10.9296875 144.703125 C11.56003906 145.7653125 12.19039062 146.8275 12.83984375 147.921875 C13.51144531 149.02015625 14.18304688 150.1184375 14.875 151.25 C15.53886719 152.36375 16.20273437 153.4775 16.88671875 154.625 C19.58366781 159.57759816 19.58366781 159.57759816 23 164 C29.25038699 163.86110251 33.75055836 161.21332165 39.1328125 158.1796875 C42.42353336 156.82573968 43.69713693 156.76750773 47 158 C49.09765625 159.5234375 49.09765625 159.5234375 51.0625 161.375 C53.65221103 163.7852261 56.14530312 165.85897734 59 168 C39.53 168 20.06 168 0 168 C0 112.56 0 57.12 0 0 Z " fill="#FDFDFE" transform="translate(0,0)"/>
<path d="M0 0 C6.95594982 -0.07446666 13.91166468 -0.12875215 20.86791992 -0.16479492 C23.23156784 -0.17982941 25.59518811 -0.20026242 27.95874023 -0.22631836 C31.36709441 -0.26293645 34.77507792 -0.27978031 38.18359375 -0.29296875 C39.23083115 -0.30845261 40.27806854 -0.32393646 41.35704041 -0.33988953 C50.29868364 -0.34191492 57.90517678 1.25657168 65 7 C67.98843882 11.00593108 68.4072633 13.98508352 68.375 18.9375 C68.38660156 20.71447266 68.38660156 20.71447266 68.3984375 22.52734375 C67.9600477 26.34821175 67.01718605 28.74146869 65 32 C61.8125 34.375 61.8125 34.375 59 36 C59.60328125 36.35191406 60.2065625 36.70382813 60.828125 37.06640625 C65.8408525 40.16297824 70.43192595 43.01847251 72 49 C72.67443755 55.02024254 73.26633807 61.53494192 70.375 67.0625 C65.31286565 73.32356091 60.26192063 76.69600962 52.18624878 77.79708862 C47.59523309 78.22319261 42.9854432 78.12013786 38.37890625 78.09765625 C37.27900864 78.0962413 36.17911102 78.09482635 35.04588318 78.09336853 C31.55139383 78.08779503 28.05696981 78.07524739 24.5625 78.0625 C22.1855478 78.05748158 19.8085946 78.05291927 17.43164062 78.04882812 C11.62106878 78.03783428 5.81054545 78.02058792 0 78 C0 73.38 0 68.76 0 64 C1.98 64 3.96 64 6 64 C6 47.5 6 31 6 14 C4.02 14 2.04 14 0 14 C0 9.38 0 4.76 0 0 Z " fill="#010101" transform="translate(70,69)"/>
<path d="M0 0 C12.05526992 -0.43573265 12.05526992 -0.43573265 16 3 C18.48386059 6.72579089 18.3804212 8.58711402 18 13 C16.30477995 16.81424512 14.86319818 18.50435209 11 20 C7.31289747 20.25747923 3.70183128 20.08813884 0 20 C0 13.4 0 6.8 0 0 Z " fill="#F6F6F6" transform="translate(99,113)"/>
<path d="M0 0 C9.12317328 -0.48016701 9.12317328 -0.48016701 12.625 1.4375 C14.62193414 5.15905907 14.84542152 8.86428933 14 13 C12.42877855 14.92135437 11.22080584 15.88959708 9 17 C5.99525503 17.13559318 3.00931153 17.04299016 0 17 C0 11.39 0 5.78 0 0 Z " fill="#F5F5F5" transform="translate(99,84)"/>
</svg>
